<svg viewBox="0 0 408.51 81.94" xmlns="http://www.w3.org/2000/svg">
  <g fill="#c4c4c4">
    <path
      d="m398.47 35.29c-.18.23-5.28 5.69-5.55 6s-.29.72.46.72h4.85c.67 0 .86-.23.86-.65 0-.28.07-5.34.07-5.9s-.31-.58-.69-.17z" />
    <path
      d="m344 35.29c-.18.23-5.25 5.69-5.54 6s-.3.72.45.72h4.85c.69 0 .86-.23.86-.65 0-.28.08-5.34.08-5.9s-.37-.58-.7-.17z" />
    <path
      d="m326.67 0v51.25h.06a9 9 0 0 0 1.94-1c.36-.2 18.13-19.58 18.43-19.87.08-.09.15-.14.23 0s-.18 18.55-.18 18.83a1 1 0 0 0 .56 1c.46.22 2.24 1 2.46 1.08.1 0 0 .12-.11.12h-10s-.11 0 0-.07 3.33-1.09 3.56-1.17c.5-.16.62-.3.64-1s.23-5.06.23-5.33.07-.81-.63-.85-5.14-.17-5.59-.15a1.69 1.69 0 0 0 -1.38.39c-.36.26-5.1 6.15-5.3 6.43s-.17.52.35.73 3.55.82 4.24 1c.11 0 .07.13 0 .13h-9.49v30.37h81.84v-81.89zm34.8 32v.07a1.27 1.27 0 0 0 -.78.85c-.1.3-3.88 16.15-3.88 16.42s-.1.67.31.82 2.58 1 2.74 1 .14.19 0 .19h-9.22c-.16 0-.26-.06-.1-.13s2.2-.76 2.39-.85a1.38 1.38 0 0 0 .9-.75c.07-.34 3.95-16.27 4-16.57a.83.83 0 0 0 -.42-1c-.24-.1-2.61-.9-2.69-1s-.12-.13 0-.13h9.7c.12 0 .21.07.08.12s-1.75.5-1.94.55a10.31 10.31 0 0 0 -1.09.46zm18.67 18.09a22.53 22.53 0 0 1 -6.63 1.43c-12.42.23-11.94-12.27-4.87-17.45a18.05 18.05 0 0 1 15.12-2.79c.86.23.73.7.64 1.05l-2 6c-.06.16-.26.21-.26 0s.24-5.15.22-5.37c0-.52 0-.85-.59-1a13.63 13.63 0 0 0 -7.68.74c-4.85 2.27-7.76 7.53-7.14 11.7.42 4.45 5.46 7.46 10.26 6.07a.71.71 0 0 0 .59-.5c.11-.25.82-3.34.84-3.46s.23-.58-.22-.7l-4.61-1.22c-.21 0-.11-.15 0-.15h7.47c.3 0 1.08-.08.87.66s-1.34 4.3-1.43 4.55a.87.87 0 0 1 -.58.49zm24.44 1.2h-9.95s-.11 0 0-.08 3.31-1.09 3.56-1.16c.49-.17.62-.31.64-1s.22-5.06.22-5.33.08-.8-.63-.85-5.12-.16-5.59-.15a1.8 1.8 0 0 0 -1.39.39c-.34.26-5.12 6.15-5.31 6.43s-.14.53.38.73 3.54.82 4.24 1c.09 0 .07.14-.06.14h-9.45c-.07 0-.07-.14 0-.14a10.65 10.65 0 0 0 1.94-1c.36-.2 18.13-19.58 18.43-19.87.09-.09.16-.14.24 0s-.19 18.55-.19 18.83a1 1 0 0 0 .56 1c.47.22 2.25 1 2.47 1.08v-.08c.09.02.04.11-.11.11z" />
    <path
      d="m129.55.77v31.58h-4.46v-20.55l-8.29 20.55h-6.25l-8.43-20.87v20.87h-4.46v-31.89h4.46l11.53 28.61 11.44-28.3v-.31h4.6z" />
    <path d="m134.84.46h4.46v31.89h-4.46z" />
    <path
      d="m169.83 16.45c0 8-4.19 16-12.62 16h-12.76v-31.99h12.76c8.43 0 12.62 7.97 12.62 15.99zm-4.28-.18c0-5.7-2.74-11.35-8.34-11.35h-8.29v23h8.29c5.51.01 8.34-5.87 8.34-11.65z" />
    <path
      d="m210.93.46-6.38 31.89h-6.38l-6.38-26.61-6.33 26.61h-6.46l-6.3-31.89h4.46l5.2 26.15 6.24-26.15h6.4l6.24 26.15 5.22-26.15z" />
    <path d="m220.54 4.92v9.25h14.67v4.46h-14.67v9.3h17.72v4.42h-22.19v-31.89h22.19v4.46z" />
    <path
      d="m268.92 22.78c0 6.7-6.37 10.07-12.75 10.07s-12.76-3.37-12.76-10.07h4.46c0 3.83 4.15 5.74 8.3 5.74s8.29-1.91 8.29-5.78c0-7.29-20.41-.64-20.41-12.44 0-6.84 6.06-10.3 12.12-10.3s12.12 3.46 12.12 10.3h-4.47c0-4.15-3.83-6.25-7.65-6.25s-7.66 2.1-7.66 6.2c0 7.38 20.41.75 20.41 12.53z" />
    <path d="m298.63 4.92h-10.48v27.43h-4.46v-27.43h-10.53v-4.46h25.47z" />
    <path
      d="m25.38 65.31c0 8-4.19 16-12.62 16h-12.76v-31.99h12.76c8.43 0 12.62 7.97 12.62 15.99zm-4.28-.18c0-5.7-2.74-11.35-8.34-11.35h-8.3v23h8.3c5.51.01 8.34-5.87 8.34-11.65z" />
    <path d="m35 53.78v9.22h14.66v4.5h-14.66v9.29h17.72v4.42h-22.19v-31.89h22.19v4.46z" />
    <path
      d="m83.38 71.64c0 6.7-6.38 10.07-12.76 10.07s-12.76-3.37-12.76-10.07h4.47c0 3.83 4.14 5.74 8.29 5.74s8.29-1.91 8.29-5.78c0-7.29-20.41-.64-20.41-12.44 0-6.84 6.06-10.3 12.12-10.3s12.12 3.46 12.12 10.3h-4.47c0-4.15-3.82-6.24-7.65-6.24s-7.62 2.08-7.62 6.19c0 7.38 20.38.73 20.38 12.53z" />
    <path d="m88.52 49.32h4.48v31.89h-4.48z" />
    <path
      d="m126.75 62.3v19h-4.46v-2.64a14.51 14.51 0 0 1 -9.44 3.28c-9.43 0-14.71-6.88-14.71-16.54 0-9.48 5.28-16.54 14.71-16.54 7.25 0 12 4.15 13.9 10.3h-4.65a9.75 9.75 0 0 0 -9.25-5.83c-3.64 0-10.34 2-10.34 12.07s6.7 12.07 10.34 12.07c2.87 0 9.44-1.09 9.44-10.75h-9.39v-4.42z" />
    <path d="m157.41 49.32v31.89h-4.41l-16.64-23.37v23.37h-4.46v-31.89h4.46l16.64 23.37v-23.37z" />
    <path
      d="m212.77 49.32-6.38 31.89h-6.39l-6.37-26.61-6.33 26.61h-6.42l-6.34-31.89h4.46l5.19 26.15 6.25-26.15h6.37l6.25 26.15 5.24-26.15z" />
    <path d="m222.38 53.78v9.22h14.67v4.5h-14.67v9.29h17.73v4.42h-22.19v-31.89h22.19v4.46z" />
    <path d="m249.72 53.78v9.22h14.67v4.5h-14.67v9.29h17.72v4.42h-22.19v-31.89h22.19v4.46z" />
    <path d="m285.12 65 13 16.17h-5.12l-10.43-13.04-5.51 6.7v6.38h-4.47v-31.89h4.47v19.45l15.94-19.45h5.11z" />
  </g>
</svg>
