<svg xmlns="http://www.w3.org/2000/svg" viewBox="0 0 512 512">
  <g fill-rule="evenodd">
    <path
      d="M0 0v512h512V0zm145.66 319h-49c-5 .11-3.74-.41.83-2.07l15.36-4.16c2.6-.93 3.53-1.34 4-5.5l2.34-34.27c.42-6-1.14-5.61-6.22-6.23-12.43-1.52-15-1.14-27.67-1.66-8.2 0-9.18-.73-15 6L41 307.34c-3.32 4.15-.65 6.07 3.58 6.88l15 2.67c7.35 1.32 6.85 2.07.52 2.07h-42c-4.17 0-5.78-.26-2-2.28l5-2.7a19.23 19.23 0 004.57-3.74L133.1 194.09c1.73-1.84 3.64-4.17 3.64.21l-4.47 111.27c-.15 3.79 1.14 5.71 4.26 7.16l11.21 4.16c3.84 1.45 4.15 2.11-2.08 2.11zm83.67-122.84l-8.62 2.49c-3.68 1.35-4.05 2.23-5.5 7.58L191.44 306c-1.25 5.6.52 6.54 3.32 7.47l9.55 2.8c4.05 1.25 8.3 2.7-1.45 2.7h-43.81c-9.13 0-1.81-1.81-.2-2.28l12.66-3.63c2.59-.73 3.22-3.12 4.57-7.89l23.82-97.42c1.92-7.63-3.89-9-3.89-9-3.9-.93-7.69-1.86-7.69-1.86-5.29-1.3-7-2.08.63-2.08h38.51c4.54.01 4.67.43 1.87 1.31zm104 115.16c-57.19 21.8-95.39 1.45-99.23-37.26-3.37-34 38.3-95.6 121.55-77.75 4.54 1 5.08 1.87 3.84 6.13l-9.34 28.75c-2.18 6.64-2.6 5.09-2.29-2l1.25-22.19c.31-5.7-2.51-6.44-5-7-32.04-6.53-69.11 3.75-86.11 43.5-22.2 51.8 21.28 79.62 56.88 71.42 3.84-.89 5.4-.42 6.86-4.78l4.56-19.1c.63-2.28 1.66-5.29-2.49-6.33l-18.79-5c-4.15-1.25-8.2-2-2-2h39c4.36 0 4.26 1 3.43 4.15l-7.27 22.83c-1.18 4.62-1.53 5.31-4.85 6.59zM474.57 319h-49c-5 .11-3.73-.41.83-2.07l15.36-4.16c2.6-.93 3.53-1.34 4-5.5l2.35-34.27c.41-6-1.15-5.61-6.23-6.23-12.43-1.52-15-1.14-27.66-1.66-8.2 0-9.19-.73-15 6L370 307.34c-3.33 4.15-.65 6.07 3.58 6.88l15 2.67c7.34 1.32 6.85 2.07.51 2.07H347c-4.18 0-5.79-.26-2-2.28l5-2.7a19.36 19.36 0 004.56-3.74L462 194.09c1.73-1.84 3.63-4.17 3.63.21l-4.46 111.27c-.16 3.79 1.14 5.71 4.25 7.16l11.21 4.16c3.86 1.45 4.17 2.11-2.06 2.11z" />
    <path
      d="M444.47 221l-31.76 34c-3.53 4-.83 5.61 2.08 5.82l28.33 1.18c5.71.1 5.92-2.29 6-5l1.34-35.19c.45-3.81-.38-7.16-5.99-.81zM115.56 221L83.8 255c-3.53 4-.83 5.61 2.08 5.82l28.33 1.18c5.71.1 5.92-2.29 6-5l1.35-35.19c.44-3.81-.39-7.16-6-.81z" />
  </g>
</svg>
