<svg width="1360.76" height="1360.76" viewBox="0 0 1360.76 1360.76" xmlns="http://www.w3.org/2000/svg">
  <g fill="none" opacity=".06" stroke="#ffffff" stroke-miterlimit="10" stroke-width="4">
    <circle cx="680.38" cy="680.38" r="12.97" />
    <circle cx="680.38" cy="680.38" r="31.45" />
    <circle cx="680.38" cy="680.38" r="49.93" />
    <circle cx="680.38" cy="680.38" r="68.42" />
    <circle cx="680.38" cy="680.38" r="86.9" />
    <circle cx="680.38" cy="680.38" r="105.38" />
    <circle cx="680.38" cy="680.38" r="123.87" />
    <circle cx="680.38" cy="680.38" r="142.35" />
    <circle cx="680.38" cy="680.38" r="160.84" />
    <circle cx="680.38" cy="680.38" r="179.32" />
    <circle cx="680.38" cy="680.38" r="197.8" />
    <circle cx="680.38" cy="680.38" r="216.29" />
    <circle cx="680.38" cy="680.38" r="234.77" />
    <circle cx="680.38" cy="680.38" r="253.25" />
    <circle cx="680.38" cy="680.38" r="271.74" />
    <circle cx="680.38" cy="680.38" r="290.22" />
    <circle cx="680.38" cy="680.38" r="308.71" />
    <circle cx="680.38" cy="680.38" r="327.19" />
    <circle cx="680.38" cy="680.38" r="345.67" />
    <circle cx="680.38" cy="680.38" r="364.16" />
    <circle cx="680.38" cy="680.38" r="382.64" />
    <circle cx="680.38" cy="680.38" r="401.12" />
    <circle cx="680.38" cy="680.38" r="419.61" />
    <circle cx="680.38" cy="680.38" r="438.09" />
    <circle cx="680.38" cy="680.38" r="456.58" />
    <circle cx="680.38" cy="680.38" r="475.06" />
    <circle cx="680.38" cy="680.38" r="493.54" />
    <circle cx="680.38" cy="680.38" r="512.03" />
    <circle cx="680.38" cy="680.38" r="530.51" />
    <circle cx="680.38" cy="680.38" r="548.99" />
    <circle cx="680.38" cy="680.38" r="567.48" />
    <circle cx="680.38" cy="680.38" r="585.96" />
    <circle cx="680.38" cy="680.38" r="604.45" />
    <circle cx="680.38" cy="680.38" r="622.93" />
    <circle cx="680.38" cy="680.38" r="641.41" />
    <circle cx="680.38" cy="680.38" r="659.9" />
    <circle cx="680.38" cy="680.38" r="678.38" />
  </g>
</svg>
