<svg width="1951.13" height="1951.13" viewBox="0 0 1951.13 1951.13" xmlns="http://www.w3.org/2000/svg">
  <g fill="none" opacity=".05" stroke="#ffffff" stroke-miterlimit="10" stroke-width="3.96"
    transform="matrix(.70710678 -.70710678 .70710678 .70710678 -404.09 975.56)">
    <path d="m963.43 963.43h24.26v24.26h-24.26z" />
    <path d="m944.66 944.66h61.8v61.8h-61.8z" />
    <path d="m925.89 925.89h99.34v99.34h-99.34z" />
    <path d="m907.12 907.12h136.88v136.88h-136.88z" />
    <path d="m888.35 888.35h174.42v174.42h-174.42z" />
    <path d="m869.58 869.58h211.96v211.96h-211.96z" />
    <path d="m850.81 850.81h249.5v249.5h-249.5z" />
    <path d="m832.04 832.04h287.04v287.04h-287.04z" />
    <path d="m813.27 813.27h324.58v324.58h-324.58z" />
    <path d="m794.5 794.5h362.12v362.12h-362.12z" />
    <path d="m775.73 775.73h399.66v399.66h-399.66z" />
    <path d="m756.96 756.96h437.2v437.2h-437.2z" />
    <path d="m738.19 738.19h474.74v474.74h-474.74z" />
    <path d="m719.42 719.42h512.28v512.28h-512.28z" />
    <path d="m700.65 700.65h549.82v549.82h-549.82z" />
    <path d="m681.89 681.89h587.36v587.36h-587.36z" />
    <path d="m663.12 663.12h624.9v624.9h-624.9z" />
    <path d="m644.35 644.35h662.44v662.44h-662.44z" />
    <path d="m625.58 625.58h699.98v699.98h-699.98z" />
    <path d="m606.81 606.81h737.52v737.52h-737.52z" />
    <path d="m588.04 588.04h775.06v775.06h-775.06z" />
    <path d="m569.27 569.27h812.6v812.6h-812.6z" />
    <path d="m550.5 550.5h850.14v850.14h-850.14z" />
    <path d="m531.73 531.73h887.68v887.68h-887.68z" />
    <path d="m512.96 512.96h925.22v925.22h-925.22z" />
    <path d="m494.19 494.19h962.76v962.76h-962.76z" />
    <path d="m475.42 475.42h1000.3v1000.3h-1000.3z" />
    <path d="m456.65 456.65h1037.84v1037.84h-1037.84z" />
    <path d="m437.88 437.88h1075.38v1075.38h-1075.38z" />
    <path d="m419.11 419.11h1112.92v1112.92h-1112.92z" />
    <path d="m400.34 400.34h1150.46v1150.46h-1150.46z" />
    <path d="m381.57 381.57h1188v1188h-1188z" />
    <path d="m362.8 362.8h1225.54v1225.54h-1225.54z" />
    <path d="m344.03 344.03h1263.08v1263.08h-1263.08z" />
    <path d="m325.26 325.26h1300.62v1300.62h-1300.62z" />
    <path d="m306.49 306.49h1338.16v1338.16h-1338.16z" />
    <path d="m287.72 287.72h1375.7v1375.7h-1375.7z" />
  </g>
</svg>
