<svg xmlns="http://www.w3.org/2000/svg" viewBox="0 0 100 200">
  <style>
    .st0 {
      fill: #fff
    }

    .st1 {
      /* fill: #ff0046 */
      fill: #fff
    }
  </style>

  <path class="st1" id="for-design"
    d="M32.6 179.5h-2.4v9.2h2.4v-9.2zM13.4 183c.2-1.1 1-1.7 2.2-1.7s1.9.7 2 1.7h-4.2zm-2.4 1c0 2.7 1.8 4.8 4.9 4.8 1.8 0 2.9-.6 3.7-1.2l-1-2c-.6.6-1.5.9-2.6.9s-2.2-.5-2.5-1.8h6.8v-.7c0-3-1.7-4.9-4.5-4.9-3 .1-4.8 2.2-4.8 4.9m-8.4 0c0-1.5 1-2.5 2.4-2.5s2.4.9 2.4 2.5c0 1.5-1 2.5-2.4 2.5s-2.4-1-2.4-2.5m-2.5 0c0 3.1 1.9 4.8 4.2 4.8 1.3 0 2.4-.6 3.1-1.5v1.3h2.4v-12.9H7.3v5c-.6-.9-1.7-1.6-3.1-1.6-2.2.1-4.1 1.8-4.1 4.9m5.6-25.8c.4 0 .8.1 1.4.1v-2.2c-.6-.1-1.1-.2-1.8-.2-1.9 0-3.3 1-3.3 3.4v.5H.1v2H2v7.1h2.4v-7.1H7v-2H4.4v-.2c0-1 .3-1.4 1.3-1.4m8.5 6.2c0 1.5-1.1 2.4-2.4 2.4-1.4 0-2.4-1-2.4-2.4s1.1-2.4 2.4-2.4c1.4-.1 2.4.9 2.4 2.4m2.5 0c0-2.9-2.1-4.8-4.9-4.8s-4.9 1.9-4.9 4.8 2.1 4.8 4.9 4.8 4.9-2 4.9-4.8m5.8-2.2c.4 0 .8 0 1.1.1v-2.6c-.3-.1-.6-.1-.9-.1-1.3 0-2.1.7-2.6 1.7v-1.5h-2.3v9.2h2.4v-4.2c0-1.7.7-2.6 2.3-2.6m1.2 19.9c0-.4.4-.6 1.2-.6 1 0 2 .4 2.5.9l1.4-1.8c-.8-.8-2-1.4-3.7-1.4-2.4 0-3.9 1.1-3.9 2.9 0 2 1.7 2.6 3 2.9 1.5.3 2 .4 2 .9s-.6.7-1.2.7c-1.3 0-2.3-.5-2.9-1.2l-1.4 1.8c.8 1 2.3 1.5 4.1 1.5 2.4 0 4-.9 4-3 0-1.9-1.3-2.5-2.9-2.9-1.7-.2-2.2-.3-2.2-.7m9.2-5.3c0-.9-.7-1.6-1.6-1.6s-1.5.7-1.5 1.6.7 1.5 1.5 1.5c1 .1 1.6-.6 1.6-1.5m8.3 7.2c0 1.5-1 2.5-2.4 2.5s-2.4-1-2.4-2.5 1-2.5 2.4-2.5c1.4.1 2.4 1 2.4 2.5m2.3 4v-8.6h-2.4v1.3c-.5-.8-1.6-1.5-3-1.5-2.3 0-4.2 1.7-4.2 4.8s1.9 4.7 4.3 4.7c1.3 0 2.3-.6 3-1.4v.6c0 1.3-.6 2.4-2.7 2.4-1.1 0-2-.4-2.8-1.2l-1.2 2c1 .9 2.2 1.4 4.1 1.4 3.8.1 4.9-2.1 4.9-4.5m10.3.6v-5.7c0-2.3-1.1-3.7-3.3-3.7-1.3 0-2.3.6-3 1.5v-1.3h-2.4v9.2h2.4v-4.4c0-1.6.6-2.7 2-2.7 1 0 1.7.6 1.7 2v5.1h2.6z" />
  <path class="st0" id="association"
    d="M6.1 145.6c0 1-.8 1.9-2.1 1.9-.8 0-1.3-.4-1.3-1 0-.5.4-.9 1.1-1l2.3-.3v.4zM.4 142l1.8 1.3c.3-.9 1.3-1.2 2.3-1.2 1.1 0 1.6.4 1.6.9v.1c0 .2-.1.3-.5.4l-2.5.2c-1.7.2-2.9 1.2-2.9 2.9s1.3 2.9 3.1 2.9c1.4 0 2.4-.7 2.8-1.4v1.2h2.4v-5.7c0-2.6-1.3-3.7-4-3.7-2 0-3.5.7-4.1 2.1m9.4.8c0 2 1.7 2.6 3 2.9 1.5.3 2 .4 2 .9s-.5.7-1.2.7c-1.3 0-2.3-.5-2.9-1.2L9.4 148c.8 1 2.3 1.5 4.1 1.5 2.4 0 4-.9 4-3 0-1.9-1.3-2.5-2.9-2.9-1.6-.3-2.1-.5-2.1-.9s.4-.6 1.2-.6c1 0 2 .4 2.5.9l1.4-1.8c-.8-.8-2-1.4-3.7-1.4-2.6.1-4.1 1.2-4.1 3m8.7 0c0 2 1.7 2.6 3 2.9 1.5.3 2 .4 2 .9s-.6.7-1.2.7c-1.3 0-2.3-.5-2.9-1.2L18 148c.8 1 2.3 1.5 4.1 1.5 2.4 0 4-.9 4-3 0-1.9-1.3-2.5-2.9-2.9-1.6-.3-2.1-.5-2.1-.9s.4-.6 1.2-.6c1 0 2 .4 2.5.9l1.4-1.8c-.8-.8-2-1.4-3.7-1.4-2.5.1-4 1.2-4 3m8.3 1.9c0 2.9 2.1 4.8 4.9 4.8s4.9-1.9 4.9-4.8-2.1-4.8-4.9-4.8-4.9 2-4.9 4.8m7.4 0c0 1.5-1.1 2.4-2.4 2.4-1.4 0-2.4-1-2.4-2.4 0-1.5 1.1-2.4 2.4-2.4 1.3 0 2.4.9 2.4 2.4m3.3 0c0 2.9 2.1 4.8 4.9 4.8 1.5 0 2.8-.6 3.5-1.4l-1.3-1.9c-.5.5-1.2.9-2.2.9-1.4 0-2.4-1-2.4-2.4 0-1.5 1-2.4 2.4-2.4.9 0 1.6.4 2.1.9l1.4-1.9c-.8-.8-2-1.3-3.5-1.3-2.8-.1-4.9 1.8-4.9 4.7m9.5-7.2c0 .9.7 1.5 1.5 1.5.9 0 1.6-.7 1.6-1.5 0-.9-.7-1.6-1.6-1.6-.8 0-1.5.7-1.5 1.6m.3 11.8h2.4v-9.2h-2.4v9.2zm9.6-3.7c0 1-.8 1.9-2.1 1.9-.8 0-1.3-.4-1.3-1 0-.5.4-.9 1.1-1l2.3-.3v.4zm-5.7-3.6l1.8 1.3c.3-.9 1.3-1.2 2.3-1.2 1.1 0 1.6.4 1.6.9v.1c0 .2-.1.3-.5.4l-2.5.2c-1.7.2-2.9 1.2-2.9 2.9s1.3 2.9 3.1 2.9c1.4 0 2.4-.7 2.8-1.4v1.2h2.4v-5.7c0-2.6-1.3-3.7-4-3.7-2 0-3.5.7-4.1 2.1m15 7.1v-2.3c-.7.1-1 .1-1.3.1-.6 0-.9-.2-.9-.8v-4h2.3v-2H64v-2.5h-2.4v2.5h-1.7v2h1.7v4.3c0 2.1 1 2.9 2.7 2.9.5.1 1.2 0 1.9-.2m1.3-11.6c0 .9.7 1.5 1.5 1.5.9 0 1.6-.7 1.6-1.5 0-.9-.7-1.6-1.6-1.6-.8 0-1.5.7-1.5 1.6m.3 11.8h2.4v-9.2h-2.4v9.2zm3.6-4.6c0 2.9 2.1 4.8 4.9 4.8s4.9-1.9 4.9-4.8-2.1-4.8-4.9-4.8c-2.7 0-4.9 2-4.9 4.8m7.4 0c0 1.5-1.1 2.4-2.4 2.4-1.4 0-2.4-1-2.4-2.4 0-1.5 1.1-2.4 2.4-2.4 1.4 0 2.4.9 2.4 2.4m6.1-3.3v-1.3h-2.3v9.2H85v-4.4c0-1.6.6-2.7 2-2.7 1 0 1.7.6 1.7 2v5.1h2.5v-5.7c0-2.3-1.1-3.7-3.3-3.7-1.3 0-2.3.6-3 1.5" />
  <path class="st0" id="professional"
    d="M5.9 127.5c-1.4 0-2.4-.9-2.4-2.5 0-1.5 1-2.5 2.4-2.5s2.4 1 2.4 2.5-1.1 2.5-2.4 2.5m-2.4 5.8v-5c.6.9 1.7 1.6 3.1 1.6 2.2 0 4.1-1.7 4.1-4.8 0-3.1-1.9-4.8-4.2-4.8-1.3 0-2.4.6-3.1 1.5v-1.3H1.1v12.9l2.4-.1zM14.3 122v-1.5H12v9.2h2.4v-4.2c0-1.8.7-2.7 2.3-2.7.4 0 .8 0 1.1.1v-2.6c-.3-.1-.6-.1-.9-.1-1.2 0-2.1.7-2.6 1.8m3.6 3.1c0 2.9 2.1 4.8 4.9 4.8s4.9-1.9 4.9-4.8-2.1-4.8-4.9-4.8c-2.8-.1-4.9 1.9-4.9 4.8m7.4 0c0 1.5-1.1 2.4-2.4 2.4-1.4 0-2.4-1-2.4-2.4s1.1-2.4 2.4-2.4c1.3-.1 2.4.9 2.4 2.4m9.4-2.6v-2h-2.6v-.2c0-1 .3-1.4 1.3-1.4.4 0 .8.1 1.4.1v-2.2c-.6-.1-1.1-.2-1.8-.2-1.9 0-3.3 1-3.3 3.4v.5h-1.9v2h1.9v7.1h2.4v-7.1h2.6zm.1 2.6c0 2.7 1.8 4.8 4.9 4.8 1.8 0 2.9-.6 3.7-1.2l-1-2c-.6.6-1.5.9-2.6.9s-2.2-.5-2.5-1.8h6.8v-.7c0-3-1.7-4.9-4.5-4.9-3 0-4.8 2.1-4.8 4.9m6.6-1.1h-4.1c.2-1.1 1-1.7 2.2-1.7 1.1 0 1.8.7 1.9 1.7m3.7-.8c0 2 1.7 2.6 3 2.9 1.5.3 2 .4 2 .9s-.6.7-1.2.7c-1.3 0-2.3-.5-2.9-1.2l-1.4 1.8c.8 1 2.3 1.5 4.1 1.5 2.4 0 4-.9 4-3 0-1.9-1.3-2.5-2.9-2.9-1.6-.3-2.1-.5-2.1-.9s.4-.6 1.2-.6c1 0 2 .4 2.5.9l1.4-1.8c-.8-.8-2-1.4-3.7-1.4-2.5.1-4 1.2-4 3.1m8.7 0c0 2 1.7 2.6 3 2.9 1.5.3 2 .4 2 .9s-.5.7-1.2.7c-1.3 0-2.3-.5-2.9-1.2l-1.4 1.8c.8 1 2.3 1.5 4.1 1.5 2.4 0 4-.9 4-3 0-1.9-1.3-2.5-2.9-2.9-1.6-.3-2.1-.5-2.1-.9s.4-.6 1.2-.6c1 0 2 .4 2.5.9l1.4-1.8c-.8-.8-2-1.4-3.7-1.4-2.6.1-4 1.2-4 3.1m8.6-5.4c0 .9.7 1.5 1.5 1.5.9 0 1.6-.7 1.6-1.5 0-.9-.7-1.6-1.6-1.6-.8.1-1.5.8-1.5 1.6m.4 11.8h2.4v-9.2h-2.4v9.2zm3.6-4.5c0 2.9 2.1 4.8 4.9 4.8s4.9-1.9 4.9-4.8-2.1-4.8-4.9-4.8c-2.8-.1-4.9 1.9-4.9 4.8m7.4 0c0 1.5-1.1 2.4-2.4 2.4-1.4 0-2.4-1-2.4-2.4s1.1-2.4 2.4-2.4c1.3-.1 2.4.9 2.4 2.4m6.1-3.3v-1.3h-2.3v9.2H80v-4.4c0-1.6.6-2.7 2-2.7 1 0 1.7.6 1.7 2v5.1h2.5V124c0-2.3-1.1-3.7-3.3-3.7-1.4-.1-2.4.6-3 1.5m13.5 4.1c0 1-.8 1.9-2.1 1.9-.8 0-1.3-.4-1.3-1 0-.5.4-.9 1.1-1l2.3-.3v.4zm-5.7-3.6l1.8 1.3c.3-.9 1.3-1.2 2.3-1.2 1.1 0 1.6.4 1.6.9v.1c0 .2-.1.3-.5.4l-2.5.2c-1.7.2-2.9 1.2-2.9 2.9s1.3 2.9 3.1 2.9c1.4 0 2.4-.7 2.8-1.4v1.2h2.4V124c0-2.6-1.3-3.7-4-3.7-2 0-3.5.7-4.1 2m9.9 7.3h2.4v-12.9h-2.4v12.9z" />
  <path class="st0" id="the"
    d="M6.6 109.8v-2.3c-.7.1-1 .1-1.3.1-.6 0-.9-.2-.9-.8v-4h2.3v-2H4.3v-2.5H1.9v2.5H.2v2h1.7v4.3c0 2.1 1 2.9 2.7 2.9.6.1 1.3 0 2-.2M8 97.1V110h2.4v-4.4c0-1.6.6-2.7 2-2.7 1.1 0 1.7.7 1.7 2v5.1h2.5v-5.7c0-2.3-1.1-3.7-3.3-3.7-1.4 0-2.3.6-2.9 1.5v-5H8zm9.6 8.3c0 2.7 1.8 4.8 4.9 4.8 1.8 0 2.9-.6 3.7-1.2l-1-2c-.6.6-1.5.9-2.6.9s-2.2-.5-2.5-1.8h6.8v-.7c0-3-1.7-4.9-4.5-4.9-3 .1-4.8 2.2-4.8 4.9m6.6-1h-4.1c.2-1.1 1-1.7 2.2-1.7 1.1-.1 1.8.7 1.9 1.7" />

  <g id="mark">
    <path class="st1" d="M-.1 0h91.6v91.6H-.1V0z" id="square" />
    <path class="fill-current text-dark" id="A-2"
      d="M82.4 45.7c0 .5-.2.7-1 .7h-5.5c-.9 0-.8-.5-.5-.8.3-.4 6.1-6.6 6.3-6.8.4-.5.8-.4.8.2 0 .6-.1 6.3-.1 6.7M88.8 57c-.3-.1-2.3-1-2.8-1.2-.6-.3-.6-.7-.6-1.1 0-.3.3-21.3.2-21.5 0-.1-.2-.1-.3 0-.3.3-20.6 22.4-21 22.6-.7.6-2.1 1.1-2.2 1.1-.1 0-.1.2 0 .2h10.7c.1 0 .2-.1.1-.2-.8-.2-4.2-.9-4.8-1-.6-.2-.6-.5-.4-.8s5.7-7 6-7.3c.5-.4.7-.4 1.6-.4h3.4c1.3 0 2.5.1 2.9.2.8.1.7.7.7 1s-.2 5.2-.3 6.1c0 .9-.2 1-.7 1.2-.3-.1-3.9 1.1-4 1.1s0 .1 0 .1h11.3c.2 0 .3-.1.2-.1" />
    <path class="fill-current text-dark" id="G"
      d="M60.8 55.7c-.3.1-4 1.5-7.5 1.6-9.1.2-12.5-6.1-10.9-11.9.8-3.1 2.8-5.9 5.4-7.9 1.5-1.1 5.8-3.8 11.4-3.8 1.1 0 3.8.1 5.8.7 1 .3.8.8.7 1.2-.1.2-2.2 6.7-2.3 6.8-.1.2-.3.3-.3 0 0-.1.3-5.9.3-6.1 0-.6 0-1-.7-1.2-.9-.3-5.4-.7-8.7.8-5.5 2.6-8.8 8.6-8.1 13.3.5 3.9 3.7 7.1 8.6 7.3 1.6 0 2.7-.2 3-.3.5-.1.6-.3.7-.6.1-.3.9-3.8 1-3.9 0-.2.3-.7-.3-.8-.5-.1-5-1.4-5.3-1.4-.2-.1-.1-.2 0-.2h8.5c.3 0 1.2-.1 1 .8-.3.9-1.5 4.9-1.6 5.2-.1.1-.4.3-.7.4" />
    <path class="fill-current text-dark" id="I"
      d="M39.5 35.1c-.6.2-.7.5-.9 1-.1.3-4.4 18.4-4.4 18.7-.1.4-.1.8.4.9.5.2 2.9 1.1 3.1 1.1.2.1.1.2-.1.2H27.1c-.2 0-.3-.1-.1-.1.2-.1 2.5-.9 2.7-1 .3-.1.8-.3 1-.8.1-.4 4.5-18.5 4.6-18.9.1-.4.1-.9-.5-1.1-.3-.1-3-1-3.1-1.1s-.1-.1 0-.1h11c.1 0 .2.1.1.1-.2 0-2 .6-2.2.6-.1.2-.7.4-1.1.5" />
    <path class="fill-current text-dark" id="A-1"
      d="M20.3 45.7c0 .5-.2.7-1 .7h-5.5c-.9 0-.8-.5-.5-.8.3-.4 6.1-6.6 6.3-6.8.4-.5.8-.4.8.2 0 .6-.1 6.3-.1 6.7M26.7 57c-.3-.1-2.3-1-2.8-1.2-.6-.3-.6-.7-.6-1.1 0-.3.3-21.3.2-21.5 0-.1-.2-.1-.3 0-.3.3-20.6 22.4-20.9 22.6-.7.6-2.1 1-2.2 1.1H0v.2H10.8c.1 0 .2-.1.1-.2-.8-.2-4.2-.9-4.8-1-.6-.2-.6-.5-.4-.8s5.6-7 6-7.3c.5-.4.7-.4 1.6-.4h3.4c1.3 0 2.6.1 2.9.2.8.1.7.7.7 1s-.2 5.2-.3 6.1c0 .9-.2 1-.7 1.2-.3-.1-4 1.1-4.1 1.1s0 .1 0 .1h11.3c.3 0 .3-.1.2-.1" />
  </g>
</svg>
