<svg xmlns="http://www.w3.org/2000/svg" viewBox="0 0 1144.63 300">
  <g id="MidwestDesignWeek" fill="#3f3e3f">
    <g id="week">
      <path d="M694.63,243.75v-75H675.88v112.5h18.75Z" />
      <path d="M694.63,281.25V300h37.5V281.25Z" />
      <path d="M788.38,281.25h18.75V168.75H788.38Z" />
      <path d="M750.88,281.25V300h37.5V281.25Z" />
      <path d="M750.88,187.5H732.13v93.75h18.75Z" />
      <path d="M825.88,168.75V300h93.75V281.25h-75v-37.5h56.25V225H844.63V187.5h75V168.75Z" />
      <path d="M1069.63,225V168.75h-18.75V300h18.75V243.75h37.5V225Z" />
      <rect x="1107.13" y="206.25" width="18.75" height="18.75" />
      <path d="M1125.88,168.75v37.5h18.75v-37.5Z" />
      <rect x="1107.13" y="243.75" width="18.75" height="18.75" />
      <path d="M1125.88,300h18.75V262.5h-18.75Z" />
      <path d="M938.38,168.75V300h93.75V281.25h-75v-37.5h56.25V225H957.13V187.5h75V168.75Z" />
    </g>
    <g id="design">
      <path d="M112.5,168.75V300h93.75V281.25h-75v-37.5H187.5V225H131.25V187.5h75V168.75Z" />
      <path d="M18.75,281.25V187.5H75V168.75H0V300H75V281.25Z" />
      <path d="M75,281.25H93.75V187.5H75Z" />
      <path d="M225,281.25V300h75V281.25Z" />
      <path d="M243.75,168.75V187.5h75V168.75Z" />
      <path d="M262.5,243.75H300V225H243.75v18.75Z" />
      <path d="M300,281.25h18.75v-37.5H300Z" />
      <path d="M225,225h18.75V187.5H225Z" />
      <path d="M430.88,168.75V187.5h75V168.75Z" />
      <path d="M412.13,281.25h18.75V187.5H412.13Z" />
      <path d="M487.13,300V281.25H430.88V300Z" />
      <path d="M505.88,225H449.63v18.75h37.5v37.5h18.75Z" />
      <path d="M337.5,168.75V187.5h18.38v93.75H337.5V300h55.88V281.25H374.63V187.5h18.75V168.75Z" />
      <path d="M543.38,206.25v-37.5H524.63V300h18.75V225h18.75V206.25Z" />
      <rect x="562.13" y="225" width="18.75" height="18.75" />
      <path d="M599.63,243.75H580.88V262.5h18.75V300h18.75V168.75H599.63Z" />
    </g>
    <g id="midwest">
      <path d="M18.75,18.75V0H0V131.25H18.75V37.5H37.5V18.75Z" />
      <path d="M56.25,37.5H37.5V75H56.25Z" />
      <path d="M56.25,112.5H75V75H56.25Z" />
      <path d="M355.88,0H337.13V112.5h18.75Z" />
      <path d="M355.88,112.5v18.75h37.5V112.5Z" />
      <path d="M468.38,0H449.63V112.5h18.75Z" />
      <path d="M449.63,131.25V112.5h-37.5v18.75Z" />
      <path d="M412.13,93.75v-75H393.38V112.5h18.75Z" />
      <path d="M75,75H93.75V37.5H75Z" />
      <path d="M112.5,131.25h18.75V0H112.5V18.75H93.75V37.5H112.5Z" />
      <path d="M580.88,131.25V112.5h-75V75h56.25V56.25H505.88V18.75h75V0H487.13V131.25Z" />
      <path d="M262.13,131.25h37.5V112.5H243.38V18.75h56.25V0h-75V131.25Z" />
      <path d="M299.63,112.5h18.75V18.75H299.63Z" />
      <path d="M674.63,131.25V112.5h-75v18.75Z" />
      <path d="M693.38,18.75V0h-75V18.75Z" />
      <path d="M618.38,56.25V75h56.25V56.25Z" />
      <path d="M693.38,75H674.63v37.5h18.75Z" />
      <path d="M618.38,18.75H599.63v37.5h18.75Z" />
      <path d="M168.75,131.25h37.13V112.5H187.13V18.75h18.75V0H150V18.75h18.38V112.5H150v18.75Z" />
      <path d="M712.13,0V18.75h37.14v112.5H768V18.75h37.5V0Z" />
    </g>
  </g>
</svg>